<mxfile host="app.diagrams.net" modified="2022-06-09T15:35:02.015Z" agent="5.0 (X11; Linux x86_64) AppleWebKit/537.36 (KHTML, like Gecko) Chrome/102.0.0.0 Safari/537.36" etag="NRc8eujgBK_PB5pqkv04" version="19.0.3" type="github">
  <diagram id="C5RBs43oDa-KdzZeNtuy" name="Page-1">
    <mxGraphModel dx="1038" dy="507" grid="1" gridSize="10" guides="1" tooltips="1" connect="1" arrows="1" fold="1" page="1" pageScale="1" pageWidth="827" pageHeight="1169" math="0" shadow="0">
      <root>
        <mxCell id="WIyWlLk6GJQsqaUBKTNV-0" />
        <mxCell id="WIyWlLk6GJQsqaUBKTNV-1" parent="WIyWlLk6GJQsqaUBKTNV-0" />
        <mxCell id="WIyWlLk6GJQsqaUBKTNV-11" value="HttpLoggingMiddleware" style="rounded=1;whiteSpace=wrap;html=1;fontSize=12;glass=0;strokeWidth=1;shadow=0;" parent="WIyWlLk6GJQsqaUBKTNV-1" vertex="1">
          <mxGeometry x="200" y="280" width="140" height="40" as="geometry" />
        </mxCell>
        <mxCell id="Uvtd89bm2TMD8Sc_6mSN-0" value="Actor" style="shape=umlActor;verticalLabelPosition=bottom;verticalAlign=top;html=1;outlineConnect=0;" vertex="1" parent="WIyWlLk6GJQsqaUBKTNV-1">
          <mxGeometry x="50" y="270" width="30" height="60" as="geometry" />
        </mxCell>
        <mxCell id="Uvtd89bm2TMD8Sc_6mSN-1" value="" style="endArrow=classic;html=1;rounded=0;entryX=0;entryY=0.5;entryDx=0;entryDy=0;exitX=0.5;exitY=0.5;exitDx=0;exitDy=0;exitPerimeter=0;" edge="1" parent="WIyWlLk6GJQsqaUBKTNV-1" source="Uvtd89bm2TMD8Sc_6mSN-0" target="WIyWlLk6GJQsqaUBKTNV-11">
          <mxGeometry width="50" height="50" relative="1" as="geometry">
            <mxPoint x="80" y="300" as="sourcePoint" />
            <mxPoint x="440" y="390" as="targetPoint" />
          </mxGeometry>
        </mxCell>
        <mxCell id="Uvtd89bm2TMD8Sc_6mSN-2" value="HTTP Request" style="text;html=1;align=center;verticalAlign=middle;resizable=0;points=[];autosize=1;strokeColor=none;fillColor=none;" vertex="1" parent="WIyWlLk6GJQsqaUBKTNV-1">
          <mxGeometry x="90" y="280" width="90" height="20" as="geometry" />
        </mxCell>
        <mxCell id="Uvtd89bm2TMD8Sc_6mSN-3" value="Controller" style="rounded=1;whiteSpace=wrap;html=1;fontSize=12;glass=0;strokeWidth=1;shadow=0;" vertex="1" parent="WIyWlLk6GJQsqaUBKTNV-1">
          <mxGeometry x="380" y="280" width="120" height="40" as="geometry" />
        </mxCell>
        <mxCell id="Uvtd89bm2TMD8Sc_6mSN-5" value="Service" style="rounded=1;whiteSpace=wrap;html=1;fontSize=12;glass=0;strokeWidth=1;shadow=0;" vertex="1" parent="WIyWlLk6GJQsqaUBKTNV-1">
          <mxGeometry x="550" y="280" width="120" height="40" as="geometry" />
        </mxCell>
        <mxCell id="Uvtd89bm2TMD8Sc_6mSN-8" value="" style="endArrow=classic;startArrow=classic;html=1;rounded=0;entryX=0;entryY=0.5;entryDx=0;entryDy=0;exitX=1;exitY=0.5;exitDx=0;exitDy=0;" edge="1" parent="WIyWlLk6GJQsqaUBKTNV-1" source="Uvtd89bm2TMD8Sc_6mSN-3" target="Uvtd89bm2TMD8Sc_6mSN-5">
          <mxGeometry width="50" height="50" relative="1" as="geometry">
            <mxPoint x="390" y="440" as="sourcePoint" />
            <mxPoint x="440" y="390" as="targetPoint" />
          </mxGeometry>
        </mxCell>
        <mxCell id="Uvtd89bm2TMD8Sc_6mSN-9" value="Response" style="text;html=1;align=center;verticalAlign=middle;resizable=0;points=[];autosize=1;strokeColor=none;fillColor=none;" vertex="1" parent="WIyWlLk6GJQsqaUBKTNV-1">
          <mxGeometry x="270" y="380" width="70" height="20" as="geometry" />
        </mxCell>
        <mxCell id="Uvtd89bm2TMD8Sc_6mSN-16" value="Query Runner" style="rounded=1;whiteSpace=wrap;html=1;fontSize=12;glass=0;strokeWidth=1;shadow=0;" vertex="1" parent="WIyWlLk6GJQsqaUBKTNV-1">
          <mxGeometry x="707" y="280" width="120" height="40" as="geometry" />
        </mxCell>
        <mxCell id="Uvtd89bm2TMD8Sc_6mSN-19" value="" style="endArrow=classic;startArrow=classic;html=1;rounded=0;entryX=0;entryY=0.5;entryDx=0;entryDy=0;" edge="1" parent="WIyWlLk6GJQsqaUBKTNV-1" source="Uvtd89bm2TMD8Sc_6mSN-5" target="Uvtd89bm2TMD8Sc_6mSN-16">
          <mxGeometry width="50" height="50" relative="1" as="geometry">
            <mxPoint x="370" y="260" as="sourcePoint" />
            <mxPoint x="420" y="210" as="targetPoint" />
          </mxGeometry>
        </mxCell>
        <mxCell id="Uvtd89bm2TMD8Sc_6mSN-24" value="Microservice" style="rounded=1;whiteSpace=wrap;html=1;fontSize=12;glass=0;strokeWidth=1;shadow=0;" vertex="1" parent="WIyWlLk6GJQsqaUBKTNV-1">
          <mxGeometry x="550" y="370" width="120" height="40" as="geometry" />
        </mxCell>
        <mxCell id="Uvtd89bm2TMD8Sc_6mSN-28" value="Cronjob" style="rounded=1;whiteSpace=wrap;html=1;fontSize=12;glass=0;strokeWidth=1;shadow=0;" vertex="1" parent="WIyWlLk6GJQsqaUBKTNV-1">
          <mxGeometry x="120" y="420" width="120" height="40" as="geometry" />
        </mxCell>
        <mxCell id="Uvtd89bm2TMD8Sc_6mSN-29" value="Actor" style="shape=umlActor;verticalLabelPosition=bottom;verticalAlign=top;html=1;outlineConnect=0;" vertex="1" parent="WIyWlLk6GJQsqaUBKTNV-1">
          <mxGeometry x="50" y="410" width="30" height="60" as="geometry" />
        </mxCell>
        <mxCell id="Uvtd89bm2TMD8Sc_6mSN-30" value="" style="endArrow=classic;html=1;rounded=0;exitX=0.5;exitY=0.5;exitDx=0;exitDy=0;exitPerimeter=0;" edge="1" parent="WIyWlLk6GJQsqaUBKTNV-1" source="Uvtd89bm2TMD8Sc_6mSN-29" target="Uvtd89bm2TMD8Sc_6mSN-28">
          <mxGeometry width="50" height="50" relative="1" as="geometry">
            <mxPoint x="370" y="430" as="sourcePoint" />
            <mxPoint x="420" y="380" as="targetPoint" />
          </mxGeometry>
        </mxCell>
        <mxCell id="Uvtd89bm2TMD8Sc_6mSN-39" value="" style="group" vertex="1" connectable="0" parent="WIyWlLk6GJQsqaUBKTNV-1">
          <mxGeometry x="165" y="490" width="550" height="220" as="geometry" />
        </mxCell>
        <mxCell id="Uvtd89bm2TMD8Sc_6mSN-36" value="" style="rounded=0;whiteSpace=wrap;html=1;labelBackgroundColor=#FFFFFF;fontSize=12;fontColor=#000000;strokeColor=#000000;strokeWidth=1;fillColor=none;dashed=1;" vertex="1" parent="Uvtd89bm2TMD8Sc_6mSN-39">
          <mxGeometry x="40" y="40" width="380" height="120" as="geometry" />
        </mxCell>
        <mxCell id="Uvtd89bm2TMD8Sc_6mSN-10" value="Logger" style="shape=cylinder3;whiteSpace=wrap;html=1;boundedLbl=1;backgroundOutline=1;size=15;" vertex="1" parent="Uvtd89bm2TMD8Sc_6mSN-39">
          <mxGeometry x="75" y="60" width="60" height="80" as="geometry" />
        </mxCell>
        <mxCell id="Uvtd89bm2TMD8Sc_6mSN-11" value="Console" style="shape=cylinder3;whiteSpace=wrap;html=1;boundedLbl=1;backgroundOutline=1;size=15;" vertex="1" parent="Uvtd89bm2TMD8Sc_6mSN-39">
          <mxGeometry x="199" y="60" width="60" height="80" as="geometry" />
        </mxCell>
        <mxCell id="Uvtd89bm2TMD8Sc_6mSN-12" value="Query" style="shape=cylinder3;whiteSpace=wrap;html=1;boundedLbl=1;backgroundOutline=1;size=15;" vertex="1" parent="Uvtd89bm2TMD8Sc_6mSN-39">
          <mxGeometry x="335" y="60" width="60" height="80" as="geometry" />
        </mxCell>
        <mxCell id="Uvtd89bm2TMD8Sc_6mSN-18" value="SQL query" style="text;html=1;align=center;verticalAlign=middle;resizable=0;points=[];autosize=1;strokeColor=none;fillColor=none;" vertex="1" parent="Uvtd89bm2TMD8Sc_6mSN-39">
          <mxGeometry x="465" y="85" width="70" height="20" as="geometry" />
        </mxCell>
        <mxCell id="Uvtd89bm2TMD8Sc_6mSN-57" value="console log" style="text;html=1;align=center;verticalAlign=middle;resizable=0;points=[];autosize=1;strokeColor=none;fillColor=none;" vertex="1" parent="Uvtd89bm2TMD8Sc_6mSN-39">
          <mxGeometry x="420" y="170" width="80" height="20" as="geometry" />
        </mxCell>
        <mxCell id="Uvtd89bm2TMD8Sc_6mSN-60" value="console log" style="text;html=1;align=center;verticalAlign=middle;resizable=0;points=[];autosize=1;strokeColor=none;fillColor=none;" vertex="1" parent="Uvtd89bm2TMD8Sc_6mSN-39">
          <mxGeometry x="295" width="80" height="20" as="geometry" />
        </mxCell>
        <mxCell id="Uvtd89bm2TMD8Sc_6mSN-33" value="&lt;span style=&quot;font-family: Whitney, &amp;quot;Helvetica Neue&amp;quot;, Helvetica, Arial, sans-serif; text-align: left; background-color: rgb(255, 255, 255);&quot;&gt;MicroserviceLoggingInterceptor&lt;/span&gt;" style="rounded=1;whiteSpace=wrap;html=1;fontSize=12;glass=0;strokeWidth=1;shadow=0;" vertex="1" parent="WIyWlLk6GJQsqaUBKTNV-1">
          <mxGeometry x="505" y="450" width="210" height="40" as="geometry" />
        </mxCell>
        <mxCell id="Uvtd89bm2TMD8Sc_6mSN-42" value="" style="endArrow=classic;startArrow=classic;html=1;rounded=0;fontSize=12;fontColor=#000000;exitX=1;exitY=0.5;exitDx=0;exitDy=0;entryX=0;entryY=0.5;entryDx=0;entryDy=0;" edge="1" parent="WIyWlLk6GJQsqaUBKTNV-1" source="WIyWlLk6GJQsqaUBKTNV-11" target="Uvtd89bm2TMD8Sc_6mSN-3">
          <mxGeometry width="50" height="50" relative="1" as="geometry">
            <mxPoint x="450" y="420" as="sourcePoint" />
            <mxPoint x="500" y="370" as="targetPoint" />
          </mxGeometry>
        </mxCell>
        <mxCell id="Uvtd89bm2TMD8Sc_6mSN-44" value="" style="endArrow=classic;html=1;rounded=0;fontSize=12;fontColor=#000000;exitX=0.5;exitY=1;exitDx=0;exitDy=0;" edge="1" parent="WIyWlLk6GJQsqaUBKTNV-1" source="WIyWlLk6GJQsqaUBKTNV-11" target="Uvtd89bm2TMD8Sc_6mSN-10">
          <mxGeometry width="50" height="50" relative="1" as="geometry">
            <mxPoint x="450" y="420" as="sourcePoint" />
            <mxPoint x="500" y="370" as="targetPoint" />
          </mxGeometry>
        </mxCell>
        <mxCell id="Uvtd89bm2TMD8Sc_6mSN-45" value="" style="endArrow=classic;html=1;rounded=0;fontSize=12;fontColor=#000000;exitX=0.5;exitY=1;exitDx=0;exitDy=0;entryX=0.5;entryY=0;entryDx=0;entryDy=0;" edge="1" parent="WIyWlLk6GJQsqaUBKTNV-1" source="Uvtd89bm2TMD8Sc_6mSN-24" target="Uvtd89bm2TMD8Sc_6mSN-33">
          <mxGeometry width="50" height="50" relative="1" as="geometry">
            <mxPoint x="450" y="420" as="sourcePoint" />
            <mxPoint x="500" y="370" as="targetPoint" />
          </mxGeometry>
        </mxCell>
        <mxCell id="Uvtd89bm2TMD8Sc_6mSN-47" value="" style="endArrow=classic;html=1;rounded=0;fontSize=12;fontColor=#000000;exitX=0.5;exitY=1;exitDx=0;exitDy=0;entryX=1;entryY=0;entryDx=0;entryDy=52.5;entryPerimeter=0;" edge="1" parent="WIyWlLk6GJQsqaUBKTNV-1" source="Uvtd89bm2TMD8Sc_6mSN-16" target="Uvtd89bm2TMD8Sc_6mSN-12">
          <mxGeometry width="50" height="50" relative="1" as="geometry">
            <mxPoint x="450" y="420" as="sourcePoint" />
            <mxPoint x="767" y="570" as="targetPoint" />
            <Array as="points">
              <mxPoint x="767" y="603" />
            </Array>
          </mxGeometry>
        </mxCell>
        <mxCell id="Uvtd89bm2TMD8Sc_6mSN-49" value="" style="endArrow=classic;html=1;rounded=0;fontSize=12;fontColor=#000000;exitX=0;exitY=0.5;exitDx=0;exitDy=0;entryX=1;entryY=0;entryDx=0;entryDy=52.5;entryPerimeter=0;dashed=1;" edge="1" parent="WIyWlLk6GJQsqaUBKTNV-1" source="Uvtd89bm2TMD8Sc_6mSN-33" target="Uvtd89bm2TMD8Sc_6mSN-10">
          <mxGeometry width="50" height="50" relative="1" as="geometry">
            <mxPoint x="450" y="420" as="sourcePoint" />
            <mxPoint x="500" y="370" as="targetPoint" />
            <Array as="points">
              <mxPoint x="330" y="470" />
              <mxPoint x="330" y="603" />
            </Array>
          </mxGeometry>
        </mxCell>
        <mxCell id="Uvtd89bm2TMD8Sc_6mSN-50" value="" style="endArrow=classic;html=1;rounded=0;fontSize=12;fontColor=#000000;exitX=0.5;exitY=1;exitDx=0;exitDy=0;entryX=0;entryY=0.5;entryDx=0;entryDy=0;entryPerimeter=0;" edge="1" parent="WIyWlLk6GJQsqaUBKTNV-1" source="Uvtd89bm2TMD8Sc_6mSN-28" target="Uvtd89bm2TMD8Sc_6mSN-10">
          <mxGeometry width="50" height="50" relative="1" as="geometry">
            <mxPoint x="450" y="420" as="sourcePoint" />
            <mxPoint x="500" y="370" as="targetPoint" />
            <Array as="points">
              <mxPoint x="180" y="590" />
            </Array>
          </mxGeometry>
        </mxCell>
        <mxCell id="Uvtd89bm2TMD8Sc_6mSN-56" value="" style="endArrow=classic;html=1;rounded=0;fontSize=12;fontColor=#000000;exitX=0.5;exitY=1;exitDx=0;exitDy=0;entryX=0.5;entryY=1;entryDx=0;entryDy=0;entryPerimeter=0;dashed=1;" edge="1" parent="WIyWlLk6GJQsqaUBKTNV-1" source="Uvtd89bm2TMD8Sc_6mSN-16" target="Uvtd89bm2TMD8Sc_6mSN-11">
          <mxGeometry width="50" height="50" relative="1" as="geometry">
            <mxPoint x="460" y="480" as="sourcePoint" />
            <mxPoint x="510" y="430" as="targetPoint" />
            <Array as="points">
              <mxPoint x="767" y="680" />
              <mxPoint x="394" y="680" />
            </Array>
          </mxGeometry>
        </mxCell>
        <mxCell id="Uvtd89bm2TMD8Sc_6mSN-58" value="console log" style="text;html=1;align=center;verticalAlign=middle;resizable=0;points=[];autosize=1;strokeColor=none;fillColor=none;" vertex="1" parent="WIyWlLk6GJQsqaUBKTNV-1">
          <mxGeometry x="460" y="340" width="80" height="20" as="geometry" />
        </mxCell>
        <mxCell id="Uvtd89bm2TMD8Sc_6mSN-59" value="" style="endArrow=none;html=1;rounded=0;fontSize=12;fontColor=#000000;entryX=0.5;entryY=1;entryDx=0;entryDy=0;dashed=1;" edge="1" parent="WIyWlLk6GJQsqaUBKTNV-1" target="Uvtd89bm2TMD8Sc_6mSN-33">
          <mxGeometry width="50" height="50" relative="1" as="geometry">
            <mxPoint x="440" y="510" as="sourcePoint" />
            <mxPoint x="510" y="430" as="targetPoint" />
            <Array as="points">
              <mxPoint x="610" y="510" />
            </Array>
          </mxGeometry>
        </mxCell>
        <mxCell id="Uvtd89bm2TMD8Sc_6mSN-62" value="" style="endArrow=classic;startArrow=classic;html=1;rounded=0;dashed=1;fontSize=12;fontColor=#000000;entryX=0.5;entryY=1;entryDx=0;entryDy=0;" edge="1" parent="WIyWlLk6GJQsqaUBKTNV-1" source="Uvtd89bm2TMD8Sc_6mSN-24" target="Uvtd89bm2TMD8Sc_6mSN-5">
          <mxGeometry width="50" height="50" relative="1" as="geometry">
            <mxPoint x="690" y="470" as="sourcePoint" />
            <mxPoint x="740" y="420" as="targetPoint" />
          </mxGeometry>
        </mxCell>
        <mxCell id="Uvtd89bm2TMD8Sc_6mSN-63" value="" style="endArrow=classic;html=1;rounded=0;dashed=1;fontSize=12;fontColor=#000000;exitX=0.5;exitY=1;exitDx=0;exitDy=0;entryX=0.5;entryY=0;entryDx=0;entryDy=0;entryPerimeter=0;" edge="1" parent="WIyWlLk6GJQsqaUBKTNV-1">
          <mxGeometry relative="1" as="geometry">
            <mxPoint x="439" y="320" as="sourcePoint" />
            <mxPoint x="393" y="550" as="targetPoint" />
            <Array as="points">
              <mxPoint x="440" y="550" />
            </Array>
          </mxGeometry>
        </mxCell>
        <mxCell id="Uvtd89bm2TMD8Sc_6mSN-64" value="console log" style="edgeLabel;resizable=0;html=1;align=center;verticalAlign=middle;dashed=1;labelBackgroundColor=#FFFFFF;fontSize=12;fontColor=#000000;strokeColor=#000000;strokeWidth=1;fillColor=none;" connectable="0" vertex="1" parent="Uvtd89bm2TMD8Sc_6mSN-63">
          <mxGeometry relative="1" as="geometry" />
        </mxCell>
        <mxCell id="Uvtd89bm2TMD8Sc_6mSN-65" value="" style="endArrow=none;dashed=1;html=1;strokeWidth=1;rounded=0;fontSize=12;fontColor=#000000;entryX=0.25;entryY=1;entryDx=0;entryDy=0;" edge="1" parent="WIyWlLk6GJQsqaUBKTNV-1" target="Uvtd89bm2TMD8Sc_6mSN-5">
          <mxGeometry width="50" height="50" relative="1" as="geometry">
            <mxPoint x="440" y="360" as="sourcePoint" />
            <mxPoint x="610" y="320" as="targetPoint" />
            <Array as="points">
              <mxPoint x="580" y="360" />
            </Array>
          </mxGeometry>
        </mxCell>
        <mxCell id="Uvtd89bm2TMD8Sc_6mSN-66" value="Service" style="rounded=1;whiteSpace=wrap;html=1;fontSize=12;glass=0;strokeWidth=1;shadow=0;" vertex="1" parent="WIyWlLk6GJQsqaUBKTNV-1">
          <mxGeometry x="120" y="340" width="120" height="40" as="geometry" />
        </mxCell>
        <mxCell id="Uvtd89bm2TMD8Sc_6mSN-67" value="" style="endArrow=classic;html=1;rounded=0;fontSize=12;fontColor=#000000;strokeWidth=1;exitX=0.5;exitY=0;exitDx=0;exitDy=0;entryX=0.5;entryY=1;entryDx=0;entryDy=0;" edge="1" parent="WIyWlLk6GJQsqaUBKTNV-1" source="Uvtd89bm2TMD8Sc_6mSN-28" target="Uvtd89bm2TMD8Sc_6mSN-66">
          <mxGeometry width="50" height="50" relative="1" as="geometry">
            <mxPoint x="460" y="430" as="sourcePoint" />
            <mxPoint x="510" y="380" as="targetPoint" />
          </mxGeometry>
        </mxCell>
      </root>
    </mxGraphModel>
  </diagram>
</mxfile>
